<svg xmlns="http://www.w3.org/2000/svg" viewBox="0 0 800 620" font-family="-apple-system, BlinkMacSystemFont, 'Segoe UI', 'PingFang SC', 'Hiragino Sans GB', 'Microsoft YaHei', sans-serif">
  <defs>
    <marker id="arrowhead" markerWidth="10" markerHeight="7" refX="10" refY="3.5" orient="auto">
      <polygon points="0 0, 10 3.5, 0 7" fill="#666"/>
    </marker>
    <filter id="shadow" x="-5%" y="-5%" width="110%" height="110%">
      <feDropShadow dx="0" dy="2" stdDeviation="3" flood-opacity="0.15"/>
    </filter>
  </defs>

  <!-- Background -->
  <rect width="800" height="620" fill="#fafbfc" rx="8"/>

  <!-- Title -->
  <text x="400" y="35" text-anchor="middle" font-size="18" font-weight="600" fill="#1a1a2e">QuantMind 系统架构</text>

  <!-- Client Layer -->
  <rect x="250" y="60" width="300" height="60" rx="8" fill="#e1f5fe" stroke="#0288d1" stroke-width="2" filter="url(#shadow)"/>
  <text x="400" y="85" text-anchor="middle" font-size="15" font-weight="600" fill="#01579b">🖥️ 客户端</text>
  <text x="400" y="105" text-anchor="middle" font-size="12" fill="#0277bd">Electron Desktop  /  Web Browser</text>

  <!-- Arrow: Client -> Gateway -->
  <line x1="400" y1="120" x2="400" y2="148" stroke="#666" stroke-width="2" marker-end="url(#arrowhead)"/>

  <!-- API Gateway -->
  <rect x="200" y="150" width="400" height="70" rx="8" fill="#fff3e0" stroke="#f57c00" stroke-width="2" filter="url(#shadow)"/>
  <text x="400" y="178" text-anchor="middle" font-size="15" font-weight="600" fill="#e65100">🚪 API Gateway  (:8000)</text>
  <text x="400" y="200" text-anchor="middle" font-size="12" fill="#ef6c00">用户认证  ·  策略管理  ·  路由代理</text>

  <!-- Arrows: Gateway -> Services -->
  <line x1="300" y1="220" x2="300" y2="248" stroke="#666" stroke-width="2" marker-end="url(#arrowhead)"/>
  <line x1="400" y1="220" x2="400" y2="248" stroke="#666" stroke-width="2" marker-end="url(#arrowhead)"/>
  <line x1="500" y1="220" x2="500" y2="248" stroke="#666" stroke-width="2" marker-end="url(#arrowhead)"/>

  <!-- Engine Service -->
  <rect x="120" y="250" width="180" height="140" rx="8" fill="#f3e5f5" stroke="#7b1fa2" stroke-width="2" filter="url(#shadow)"/>
  <text x="210" y="280" text-anchor="middle" font-size="14" font-weight="600" fill="#4a148c">🧠 Engine  (:8001)</text>
  <line x1="140" y1="295" x2="280" y2="295" stroke="#7b1fa2" stroke-width="1" opacity="0.3"/>
  <text x="210" y="318" text-anchor="middle" font-size="12" fill="#6a1b9a">Qlib 回测引擎</text>
  <text x="210" y="338" text-anchor="middle" font-size="12" fill="#6a1b9a">模型训练</text>
  <text x="210" y="358" text-anchor="middle" font-size="12" fill="#6a1b9a">AI 推理服务</text>
  <text x="210" y="378" text-anchor="middle" font-size="12" fill="#6a1b9a">智能策略生成</text>

  <!-- Trade Service -->
  <rect x="310" y="250" width="180" height="140" rx="8" fill="#e8f5e9" stroke="#388e3c" stroke-width="2" filter="url(#shadow)"/>
  <text x="400" y="280" text-anchor="middle" font-size="14" font-weight="600" fill="#1b5e20">💹 Trade  (:8002)</text>
  <line x1="330" y1="295" x2="470" y2="295" stroke="#388e3c" stroke-width="1" opacity="0.3"/>
  <text x="400" y="318" text-anchor="middle" font-size="12" fill="#2e7d32">订单管理</text>
  <text x="400" y="338" text-anchor="middle" font-size="12" fill="#2e7d32">持仓管理</text>
  <text x="400" y="358" text-anchor="middle" font-size="12" fill="#2e7d32">风控系统</text>
  <text x="400" y="378" text-anchor="middle" font-size="12" fill="#2e7d32">模拟/实盘交易</text>

  <!-- Stream Service -->
  <rect x="500" y="250" width="180" height="140" rx="8" fill="#fce4ec" stroke="#c2185b" stroke-width="2" filter="url(#shadow)"/>
  <text x="590" y="280" text-anchor="middle" font-size="14" font-weight="600" fill="#880e4f">📡 Stream  (:8003)</text>
  <line x1="520" y1="295" x2="660" y2="295" stroke="#c2185b" stroke-width="1" opacity="0.3"/>
  <text x="590" y="318" text-anchor="middle" font-size="12" fill="#ad1457">实时行情</text>
  <text x="590" y="338" text-anchor="middle" font-size="12" fill="#ad1457">WebSocket 推送</text>
  <text x="590" y="358" text-anchor="middle" font-size="12" fill="#ad1457">指标计算</text>
  <text x="590" y="378" text-anchor="middle" font-size="12" fill="#ad1457">通知推送</text>

  <!-- Arrows: Services -> Data Layer -->
  <line x1="210" y1="390" x2="210" y2="448" stroke="#666" stroke-width="2" marker-end="url(#arrowhead)"/>
  <line x1="400" y1="390" x2="400" y2="448" stroke="#666" stroke-width="2" marker-end="url(#arrowhead)"/>
  <line x1="590" y1="390" x2="590" y2="448" stroke="#666" stroke-width="2" marker-end="url(#arrowhead)"/>

  <!-- Data Layer -->
  <rect x="100" y="450" width="600" height="80" rx="8" fill="#f5f5f5" stroke="#616161" stroke-width="2" filter="url(#shadow)"/>
  <text x="400" y="480" text-anchor="middle" font-size="15" font-weight="600" fill="#212121">💾 数据层</text>
  <text x="250" y="510" text-anchor="middle" font-size="13" fill="#424242">PostgreSQL 15</text>
  <text x="400" y="510" text-anchor="middle" font-size="13" fill="#757575">+</text>
  <text x="550" y="510" text-anchor="middle" font-size="13" fill="#424242">Redis 7</text>

  <!-- External Services -->
  <rect x="100" y="555" width="250" height="50" rx="6" fill="#fff8e1" stroke="#f9a825" stroke-width="1.5" stroke-dasharray="5,3"/>
  <text x="225" y="585" text-anchor="middle" font-size="13" fill="#f57f17">🌐 券商接口 (QMT)</text>

  <rect x="450" y="555" width="250" height="50" rx="6" fill="#fff8e1" stroke="#f9a825" stroke-width="1.5" stroke-dasharray="5,3"/>
  <text x="575" y="585" text-anchor="middle" font-size="13" fill="#f57f17">📈 行情源</text>

  <!-- Arrows: Trade -> Broker, Stream -> Market -->
  <line x1="400" y1="390" x2="225" y2="555" stroke="#f9a825" stroke-width="1.5" stroke-dasharray="4,3" marker-end="url(#arrowhead)"/>
  <line x1="590" y1="390" x2="575" y2="555" stroke="#f9a825" stroke-width="1.5" stroke-dasharray="4,3" marker-end="url(#arrowhead)"/>

  <!-- Legend -->
  <rect x="620" y="60" width="160" height="130" rx="6" fill="#ffffff" stroke="#e0e0e0" stroke-width="1"/>
  <text x="700" y="82" text-anchor="middle" font-size="12" font-weight="600" fill="#424242">图例</text>
  <rect x="635" y="95" width="15" height="15" rx="3" fill="#e1f5fe" stroke="#0288d1"/>
  <text x="658" y="107" font-size="11" fill="#616161">客户端</text>
  <rect x="635" y="118" width="15" height="15" rx="3" fill="#fff3e0" stroke="#f57c00"/>
  <text x="658" y="130" font-size="11" fill="#616161">API 网关</text>
  <rect x="635" y="141" width="15" height="15" rx="3" fill="#e8f5e9" stroke="#388e3c"/>
  <text x="658" y="153" font-size="11" fill="#616161">业务服务</text>
  <rect x="635" y="164" width="15" height="15" rx="3" fill="#f5f5f5" stroke="#616161"/>
  <text x="658" y="176" font-size="11" fill="#616161">数据存储</text>
</svg>
